<svg width="26" height="27" viewBox="0 0 26 27" fill="none" xmlns="http://www.w3.org/2000/svg"><mask id="mask0_5_1203" style="mask-type:luminance" maskUnits="userSpaceOnUse" x="0" y="0" width="26" height="27"><path d="M25.7.8H.3v25.4h25.4V.8Z" fill="#fff"/></mask><g mask="url(#mask0_5_1203)"><mask id="mask1_5_1203" style="mask-type:luminance" maskUnits="userSpaceOnUse" x="0" y="2" width="26" height="22"><path d="M25.7 3H.3v20h25.4V3Z" fill="#fff"/></mask><g mask="url(#mask1_5_1203)" fill="#717171"><path d="M8.3 3h9.4c.5 0 1 .1 1.2.5.4.3.5.7.5 1.2v16.6c0 .4-.1.9-.5 1.2-.3.3-.7.5-1.2.5H8.3c-.5 0-.9-.2-1.2-.5-.3-.3-.5-.8-.5-1.2V4.7c0-.5.2-1 .5-1.2.3-.4.7-.6 1.2-.6Zm9.4 18.8.4-.1.2-.4V4.7c0-.2 0-.3-.2-.4a.6.6 0 0 0-.4-.2H8.3c-.2 0-.3 0-.4.2l-.2.4v16.6c0 .1 0 .3.2.4l.4.1h9.4ZM20.4 22H20l.4-1.1a.6.6 0 0 0 .6-.2v-.2L24.6 9v-.4c-.1-.2-.2-.3-.4-.3l-4-1.3.4-1 4 1.2c.4.1.8.4 1 .8.2.4.2 1 0 1.4l-3.4 11.6a1.7 1.7 0 0 1-.9 1l-.8.2ZM5.4 21.9c-.4 0-.7-.2-1-.4-.3-.2-.5-.5-.6-.9L.4 9.6a1.8 1.8 0 0 1 1.1-2.1l4-1.3.4 1.1-4 1.3a.6.6 0 0 0-.4.3.6.6 0 0 0 0 .4l3.4 11 .2.3h.5l.3 1.2h-.5Z"/></g></g></svg>