<svg width="21" height="22" viewBox="0 0 21 22" fill="none" xmlns="http://www.w3.org/2000/svg"><g clip-path="url(#clip0_5_1245)"><path d="M7.3 7.9a.8.8 0 0 0 1.4.7c.1-.3.3-.5.5-.6.2-.1.5-.3 1-.3.4 0 .7.1 1 .3a1 1 0 0 1 .4.8l-.1.5-.4.4a7.4 7.4 0 0 1-.3.2l-.4.2c-.4.2-.6.5-.9.8a.8.8 0 0 0 1.3.9l.4-.4.4-.2.4-.2.8-.8c.2-.4.4-.8.4-1.4 0-.9-.5-1.6-1-2-.6-.4-1.3-.6-2-.6-.8 0-1.4.2-1.9.5l-1 1.2Zm0 0a3 3 0 0 1 1-1.2l-1 1.2ZM.3 11a9.9 9.9 0 1 1 19.8 0A9.9 9.9 0 0 1 .3 11Zm9.9-8.3a8.3 8.3 0 1 0 0 16.6 8.3 8.3 0 0 0 0-16.6Zm1 12a1.1 1.1 0 1 1-2.1 0 1.1 1.1 0 0 1 2.2 0Z" fill="#717171"/><path d="M7.3 7.9a.8.8 0 0 0 1.4.7c.1-.3.3-.5.5-.6.2-.1.5-.3 1-.3.4 0 .7.1 1 .3a1 1 0 0 1 .4.8l-.1.5-.4.4a7.4 7.4 0 0 1-.3.2l-.4.2c-.4.2-.6.5-.9.8a.8.8 0 0 0 1.3.9l.4-.4.4-.2.4-.2.8-.8c.2-.4.4-.8.4-1.4 0-.9-.5-1.6-1-2-.6-.4-1.3-.6-2-.6-.8 0-1.4.2-1.9.5m-1 1.2 1-1.2m-1 1.2a3 3 0 0 1 1-1.2M.3 11a9.9 9.9 0 1 1 19.8 0A9.9 9.9 0 0 1 .3 11Zm9.9-8.3a8.3 8.3 0 1 0 0 16.6 8.3 8.3 0 0 0 0-16.6Zm1 12a1.1 1.1 0 1 1-2.1 0 1.1 1.1 0 0 1 2.2 0Z" stroke="#fff" stroke-width=".3"/></g><defs><clipPath id="clip0_5_1245"><path fill="#fff" d="M0 .5h21v21H0z"/></clipPath></defs></svg>