<svg width="25" height="23" viewBox="0 0 25 23" fill="none" xmlns="http://www.w3.org/2000/svg"><g clip-path="url(#clip0_5_1336)"><path d="M12.2 2.7h.3a6.9 6.9 0 0 1 9-.2c3.3 2.7 3.6 7.1 1.2 10.2a204 204 0 0 1-9.2 8.8h0l-.3.3a1.4 1.4 0 0 1-1.3.2l-.4-.2-.3-.2h0A204 204 0 0 1 2 12.7 7.3 7.3 0 0 1 3 2.6c3-2.5 6.6-2 9.2.1Zm0 17.5h.3a201.8 201.8 0 0 0 8.9-8.5c1.9-2.4 1.6-5.9-1-7.9-2.3-2-5.5-1.5-7.4.8a.8.8 0 0 1-1.3 0c-2-2.3-5.2-2.8-7.5-.8a5.6 5.6 0 0 0-.9 8 201.5 201.5 0 0 0 8.9 8.5Z" fill="#717171" stroke="#fff" stroke-width=".5" stroke-linecap="round" stroke-linejoin="round"/></g><defs><clipPath id="clip0_5_1336"><path fill="#fff" d="M0 .5h25v22H0z"/></clipPath></defs></svg>