<svg width="30" height="30" viewBox="0 0 30 30" fill="none" xmlns="http://www.w3.org/2000/svg">
<path d="M26.3365 25.6622H25.0202V11.6691H26.0243C26.2052 11.6691 26.3534 11.5219 26.3534 11.34V10.0857C26.3534 9.90474 26.2062 9.75755 26.0243 9.75755H25.1899V7.80755C25.1899 7.68849 25.1252 7.57786 25.0193 7.51974L15.1568 2.07661C15.0593 2.02036 14.9393 2.02036 14.8409 2.07661L4.9793 7.52067C4.87336 7.5788 4.80867 7.68942 4.80867 7.80849V9.75849H3.97523C3.7943 9.75849 3.64711 9.90474 3.64711 10.0866V11.341C3.64711 11.5219 3.79336 11.67 3.97523 11.67H4.98023V25.6632H3.66211C3.48117 25.6632 3.33398 25.8094 3.33398 25.9913V27.6375C3.33398 27.8185 3.48023 27.9657 3.66211 27.9657H26.3365C26.5174 27.9657 26.6646 27.8194 26.6646 27.6375V25.9913C26.6637 25.8085 26.5174 25.6622 26.3365 25.6622ZM5.46492 8.00161L15.0002 2.74036L24.5337 8.00161V9.75849H5.46492V8.00161ZM4.30336 10.4138H25.6952V11.0129H4.30336V10.4138ZM5.63648 11.6691H24.363V25.6622H22.2087V17.3082C22.2087 16.3847 21.4568 15.6329 20.5334 15.6329C19.6099 15.6329 18.858 16.3847 18.858 17.3082V25.6622H16.6755V17.3082C16.6755 16.3847 15.9227 15.6329 15.0002 15.6329C14.0759 15.6329 13.323 16.3847 13.323 17.3082V25.6622H11.1424V17.3082C11.1424 16.3847 10.3896 15.6329 9.46711 15.6329C8.54273 15.6329 7.78992 16.3847 7.78992 17.3082V25.6622H5.63648V11.6691ZM21.5534 25.6622H19.5134V17.3082C19.5134 16.7457 19.9709 16.2882 20.5334 16.2882C21.0959 16.2882 21.5534 16.7457 21.5534 17.3082V25.6622ZM16.0184 25.6622H13.9802V17.3082C13.9802 16.7457 14.4368 16.2882 15.0002 16.2882C15.5627 16.2882 16.0184 16.7457 16.0184 17.3082V25.6622ZM10.4862 25.6622H8.44711V17.3082C8.44711 16.7457 8.90461 16.2882 9.46711 16.2882C10.0296 16.2882 10.4862 16.7457 10.4862 17.3082V25.6622ZM26.0074 27.3076H3.99117V26.3185H26.0074V27.3076Z" fill="#717171"/>
<path d="M15.0008 4.50745C13.8092 4.50745 12.8398 5.47682 12.8398 6.66838C12.8398 7.85995 13.8083 8.82932 15.0008 8.82932C16.1914 8.82932 17.1598 7.86088 17.1598 6.66838C17.1598 5.47682 16.1914 4.50745 15.0008 4.50745ZM15.0008 8.17307C14.1702 8.17307 13.4961 7.49713 13.4961 6.66838C13.4961 5.83963 14.1711 5.16463 15.0008 5.16463C15.8305 5.16463 16.5045 5.8387 16.5045 6.66838C16.5045 7.49807 15.8305 8.17307 15.0008 8.17307Z" fill="#717171"/>
</svg>
